<svg width="79" height="78" viewBox="0 0 79 78" fill="none" xmlns="http://www.w3.org/2000/svg">
  <path
    d="M10.5933 52.4998C20.4278 67.4998 40.097 76.4995 40.097 76.4995C40.097 76.4995 60.8735 64.5408 67.3314 51.7498C73.7129 39.1098 71.1139 15.7498 71.1139 15.7498L40.097 2.24976L6.81066 15.7498C6.81066 15.7498 2.78316 40.5875 10.5933 52.4998Z"
    fill="#10A35A" />
  <g clip-path="url(#clip0_10709_32385)">
    <path
      d="M71.6683 13.4689C60.8434 10.5283 49.9548 5.94966 40.1797 0.227944C39.6604 -0.0759813 39.0161 -0.0759813 38.497 0.227944C28.4399 6.11404 18.1397 10.445 7.00744 13.4689C6.28829 13.664 5.78979 14.3121 5.78979 15.0514V31.8162C5.78979 49.0802 13.8233 60.5078 20.5627 67.0542C27.8182 74.1023 36.2698 78 39.3384 78C42.4066 78 50.8582 74.1023 58.1137 67.0542C64.853 60.508 72.886 49.0804 72.886 31.8162V15.0513C72.886 14.3121 72.3875 13.664 71.6683 13.4689ZM69.576 31.8161C69.576 47.9405 62.0832 58.6038 55.797 64.7101C48.6622 71.6409 41.0337 74.7183 39.3384 74.7183C37.643 74.7183 30.0141 71.6409 22.8791 64.7101C16.5931 58.6037 9.0999 47.9405 9.0999 31.8161V16.2968C19.7455 13.3002 29.6597 9.11825 39.3387 3.54202C48.7759 8.97033 59.1847 13.3603 69.576 16.2962V31.8161Z"
      fill="#008F47" />
    <path
      d="M24.6699 16.116C24.3349 15.2728 23.3741 14.8586 22.5234 15.1909C19.5668 16.3458 16.5322 17.4088 13.504 18.3506C12.8138 18.5654 12.3442 19.1992 12.3442 19.9161V26.2522C12.3442 27.1584 13.0854 27.893 13.9992 27.893C14.9131 27.893 15.6542 27.1584 15.6542 26.2522V21.1152C18.3709 20.2438 21.0846 19.2799 23.7367 18.2438C24.5872 17.9119 25.0051 16.9593 24.6699 16.116Z"
      fill="white"
      fill-opacity="0.5" />
    <path
      d="M27.8126 16.424C28.0346 16.424 28.26 16.3797 28.4762 16.2862L28.5067 16.2731C29.344 15.9093 29.7211 14.9429 29.3541 14.1131C28.9869 13.283 28.0066 12.9075 27.1702 13.271L27.1435 13.2824C26.3057 13.6451 25.9274 14.6107 26.2933 15.441C26.5648 16.0573 27.1741 16.424 27.8126 16.424Z"
      fill="white"
      fill-opacity="0.5" />
    <path
      d="M59.0566 52.9065C58.2918 52.4109 57.2663 52.6241 56.7658 53.3826C55.402 55.452 53.802 57.4337 52.0097 59.272C50.5357 60.7836 48.9385 62.1924 47.2625 63.4592C46.5358 64.0085 46.396 65.0381 46.95 65.7588C47.2759 66.1822 47.7687 66.4049 48.2672 66.4049C48.6172 66.4049 48.9699 66.2954 49.2695 66.0687C51.0774 64.702 52.8 63.1827 54.3892 61.5529C56.3271 59.5657 58.0589 57.4207 59.5368 55.1775C60.037 54.4188 59.8217 53.4021 59.0566 52.9065Z"
      fill="white"
      fill-opacity="0.5" />
    <path
      d="M43.4194 66.0331L43.3245 66.0886C42.5336 66.5427 42.2633 67.5464 42.7212 68.3305C43.0281 68.856 43.5835 69.1495 44.155 69.1495C44.4362 69.1495 44.7217 69.0783 44.9825 68.9283L45.0921 68.8644C45.8808 68.4065 46.1457 67.4015 45.6838 66.6195C45.2216 65.8378 44.2077 65.5756 43.4194 66.0331Z"
      fill="white"
      fill-opacity="0.5" />
  </g>
  <defs>
    <clipPath id="clip0_10709_32385">
      <rect width="78.6769" height="78" fill="white" />
    </clipPath>
  </defs>
</svg>
